<?xml version="1.0" encoding="utf-8"?>
<!-- Generator: Adobe Illustrator 16.0.3, SVG Export Plug-In . SVG Version: 6.00 Build 0)  -->
<!DOCTYPE svg PUBLIC "-//W3C//DTD SVG 1.1//EN" "http://www.w3.org/Graphics/SVG/1.1/DTD/svg11.dtd">
<svg version="1.1" xmlns="http://www.w3.org/2000/svg" xmlns:xlink="http://www.w3.org/1999/xlink" x="0px" y="0px"
	 width="1024.958px" height="195.666px" viewBox="0 0 1024.958 195.666" enable-background="new 0 0 1024.958 195.666"
	 xml:space="preserve">
<g id="Capa_1">
</g>
<g id="Capa_2_copia">
	<g id="titleBck">
		<path fill-rule="evenodd" clip-rule="evenodd" fill="#28BAE9" d="M686.405,70.306c-0.835-13.725,3.378-26.668,10.847-38.279
			c9.632-14.973,23.449-25.52,40.682-29.768c17.086-4.212,34.258-2.756,50.016,6.24c6.624,3.781,12.844,8.194,17.59,14.362
			c0.642,0.831,1.399,1.217,0.103,2.23c-5.266,4.122-10.209,8.619-14.919,13.367c-2.144,2.159-3.691,3.207-6.631,0.252
			c-6.062-6.093-13.543-10.745-22.068-11.823c-9.189-1.165-18.495-0.24-26.895,4.701c-11.724,6.898-18.932,17.244-21.526,30.295
			c-2.719,13.679,0.567,26.357,9.431,37.359c6.944,8.621,16.106,13.901,26.875,15.271c11.038,1.405,21.364-1.313,30.434-8.444
			c4.013-3.158,6.998-7.019,9.865-11.02c1.05-1.464,1.314-1.318,2.339-0.336c5.508,5.295,10.979,10.634,16.623,15.781
			c1.638,1.494,1.352,2.754,0.271,4.033c-10.424,12.351-22.815,21.342-39.063,24.875c-21.832,4.748-41.347-0.04-58.455-13.709
			c-13.214-10.558-21.047-24.91-24.774-41.413C686.143,79.826,686.324,75.261,686.405,70.306z"/>
		<path fill-rule="evenodd" clip-rule="evenodd" fill="#FFFFFF" d="M477.113,40.614c-5.257-5.082-11.317-8.879-18.234-11.089
			c-3.118-0.995-6.472-2.038-9.782-0.96c-2.706,0.879-5.667,1.575-6.426,5.193c-1.089,5.183,0.169,9.23,4.67,12.302
			c6.067,4.139,12.897,6.731,19.376,10.04c12.87,6.573,21.482,16.792,23.733,31.425c1.67,10.848,2.194,21.685-3.764,31.708
			c-6.691,11.251-16.392,18.436-29.243,20.778c-10.987,2.001-21.93,1.441-32.401-3.014c-5.48-2.333-10.987-4.916-14.927-9.38
			c-1.631-1.847-6.816-1.654-4.647-6.108c1.264-2.594,3.18-4.879,4.87-7.254c3.047-4.281,6.224-8.47,9.184-12.809
			c1.417-2.075,2.264-2.696,4.513-0.604c5.443,5.064,11.455,9.563,18.886,11.171c6.334,1.372,14.713,0.103,17.601-6.641
			c1.947-4.55,0.917-9.867-2.453-13.595c-5.141-5.686-11.79-9.141-18.391-12.536c-10.836-5.575-20.392-12.493-25.135-24.099
			c-8.707-21.313-2.473-43.853,22.292-52.223c14.181-4.792,28.492-3.38,42.174,2.31c4.185,1.739,7.626,5.257,11.429,7.932
			c1.882,1.323,0.217,2.499-0.288,3.442c-4.007,7.493-8.154,14.911-12.252,22.356C477.621,39.46,477.405,39.994,477.113,40.614z"/>
		<path fill-rule="evenodd" clip-rule="evenodd" fill="#FFFFFF" d="M549.119,81.615c0-17.602-0.052-35.203,0.062-52.804
			c0.016-2.338-0.453-2.946-2.872-2.912c-11.431,0.156-22.869-0.022-34.301,0.141c-2.569,0.036-3.117-0.703-3.046-3.124
			c0.177-6.033,0.139-12.077,0.014-18.112c-0.041-2,0.222-2.807,2.573-2.803c35.074,0.09,70.147,0.091,105.224,0
			c2.36-0.006,2.605,0.818,2.564,2.809c-0.121,6.164-0.141,12.334,0.009,18.499c0.052,2.124-0.449,2.742-2.662,2.719
			c-11.431-0.125-22.869,0.066-34.299-0.136c-3.3-0.06-4.044,0.965-4.031,4.135c0.111,34.431,0.039,68.863,0.126,103.295
			c0.006,2.749-0.36,3.905-3.563,3.784c-7.569-0.29-15.158-0.192-22.736-0.037c-2.397,0.049-3.151-0.447-3.132-3.035
			C549.183,116.562,549.119,99.088,549.119,81.615z"/>
		<path fill-rule="evenodd" clip-rule="evenodd" fill="#FFFFFF" d="M121.143,69.503c0-21.446,0.032-42.893-0.046-64.339
			c-0.008-2.291,0.282-3.269,2.983-3.18c7.185,0.234,14.392,0.326,21.566-0.029c3.29-0.164,3.303,1.198,3.298,3.663
			c-0.06,33.646-0.008,67.292-0.103,100.937c-0.007,2.688,0.375,3.579,3.402,3.558c23.5-0.164,47.001-0.044,70.502-0.156
			c2.582-0.013,3.444,0.413,3.352,3.215c-0.239,7.185-0.149,14.382-0.033,21.572c0.03,1.828-0.375,2.32-2.273,2.316
			c-33.518-0.066-67.035-0.09-100.554,0.028c-2.711,0.009-2.086-1.449-2.088-2.86C121.141,112.653,121.143,91.077,121.143,69.503z"
			/>
		<path fill-rule="evenodd" clip-rule="evenodd" fill="#FFFFFF" d="M641.655,69.313c0-21.319,0.048-42.636-0.064-63.954
			c-0.013-2.546,0.353-3.475,3.193-3.376c7.054,0.246,14.127,0.223,21.184,0.011c2.753-0.083,3.542,0.46,3.532,3.431
			c-0.131,36.728-0.086,73.456-0.086,110.185c0,6.036-0.14,12.077,0.067,18.107c0.086,2.554-0.354,3.474-3.194,3.376
			c-7.056-0.246-14.129-0.222-21.185-0.009c-2.755,0.08-3.559-0.46-3.536-3.432C641.729,112.205,641.655,90.758,641.655,69.313z"/>
		<path fill-rule="evenodd" clip-rule="evenodd" fill="#28BAE9" d="M993.582,177.11c9.731,0,19.466,0.076,29.196-0.062
			c2.093-0.029,2.197,0.775,2.16,2.433c-0.099,4.621-0.13,9.25,0.015,13.868c0.058,1.841-0.386,2.325-2.279,2.316
			c-18.622-0.082-37.249-0.075-55.871-0.006c-1.71,0.006-2.357-0.434-2.05-2.108c0.022-0.125,0.008-0.256,0.004-0.384
			c-0.313-13.627,0.427-14.885,11.952-23.126c3.49-2.495,6.302-5.859,9.428-8.792c6.587-6.183,14.015-11.576,19.621-18.708
			c6.103-7.764,1.845-18.959-7.345-20.927c-10.606-2.272-18.121,4.3-17.461,15.112c0.022,0.373-0.207,0.907-0.029,1.106
			c3.415,3.831,1.104,5.835-2.161,8.052c-2.683,1.822-4.494,4.74-7.33,6.542c-1.208,0.768-0.988,0.259-1.524-0.536
			c-4.771-7.076-6.039-14.631-4.453-23.051c2.247-11.931,9.466-18.843,20.535-22.755c16.225-5.733,35.753,6.035,38.26,23.558
			c1.496,10.475-1.199,19.018-8.647,26.345c-6.594,6.485-13.291,12.851-20.388,18.785c-0.685,0.574-1.532,0.948-2.304,1.413
			C993.135,176.494,993.358,176.802,993.582,177.11z"/>
		<path fill-rule="evenodd" clip-rule="evenodd" fill="#28BAE9" d="M957.053,63.005c-1.361-15.009-7.336-28.046-17.267-39.173
			c-13.921-15.599-31.44-23.498-57.21-23.44c-35.249-0.969-63.516,31.816-65.857,62.883c-1.45,19.196,3.46,36.418,16.167,51.21
			c12.507,14.56,28.24,23.142,47.313,24.744c21.697,1.823,40.893-4.401,56.479-20.064C952.13,103.637,959.041,84.923,957.053,63.005
			z M930.032,73.883c-0.104,1.504-1.145,2.805-0.581,5.23c-7.589-13.729-18.616-19.333-33.488-18.397
			c5.117,3.343,9.627,7.14,12.639,12.152c8.261,13.752,4.635,29.887-9.633,37.807c-4.471,2.483-10.071,2.517-15.627,1.868
			c-6.31-0.739-12.027-2.462-17.52-5.427c-11.219-6.053-18.619-15.283-21.251-27.657c-3.374-15.852,0.703-29.955,12.688-41.105
			c9.642-8.971,21.454-12.923,34.54-11.507c9.866,1.069,18.792,5.316,25.646,12.522C926.517,48.912,930.96,60.516,930.032,73.883z"
			/>
		<path fill-rule="evenodd" clip-rule="evenodd" fill="#FFFFFF" d="M396.9,133.953c-6.669-12.037-13.239-24.129-19.755-36.25
			c-8.147-15.154-16.214-30.354-24.301-45.543c-7.301-13.713-14.992-27.241-21.696-41.241c-3.315-6.921-7.233-10.551-15.078-8.911
			c-1.848,0.387-3.845,0.136-5.767,0.047c-1.3-0.062-1.909,0.416-2.537,1.597c-5.343,10.04-10.851,19.991-16.202,30.026
			c-4.943,9.268-9.659,18.655-14.641,27.9c-10.098,18.75-20.327,37.43-30.461,56.159c-3.416,6.315-6.71,12.696-10.179,19.274
			c10.28,0,20.553-0.012,30.827,0.014c1.659,0.003,2.787-0.092,3.865-1.949c5.056-8.695,9.151-17.86,13.639-26.832
			c0.938-1.875,1.896-2.971,4.469-2.947c18.879,0.181,37.762,0.163,56.641,0.015c2.316-0.019,3.381,0.733,4.313,2.624
			c4.386,8.884,8.994,17.663,13.195,26.632c0.904,1.933,1.724,2.491,3.663,2.476c9.376-0.075,18.754-0.154,28.128,0.035
			C398.13,137.141,398.327,136.527,396.9,133.953z M298.724,79.96c5.423-13.184,12.606-25.456,18.481-38.982
			c6.449,13.265,12.648,26.018,18.951,38.982C323.53,79.96,311.125,79.96,298.724,79.96z"/>
		<path fill-rule="evenodd" clip-rule="evenodd" fill="#FFFFFF" d="M103.531,37.856c-3.53-21.525-21.686-35.115-41.494-35.671
			C42.397,1.633,22.729,2.118,3.075,1.998C0.541,1.982,0.005,2.66,0.017,5.103c0.103,21.453,0.06,42.907,0.06,64.361
			S0.136,112.372,0,133.825c-0.016,2.735,0.655,3.337,3.313,3.259c7.188-0.212,14.392-0.225,21.578,0.006
			c2.684,0.086,3.009-0.863,2.995-3.174c-0.098-14.257,0.02-28.517-0.111-42.776c-0.024-2.663,0.323-3.65,3.392-3.577
			c10.529,0.251,21.067,0.009,31.601,0.129c6.122,0.071,11.899-1.511,17.197-4.145C96.262,75.441,106.818,57.897,103.531,37.856z
			 M72.577,57.743c-2.791,3.724-6.587,5.945-11.324,5.985c-10.151,0.085-20.304-0.084-30.451,0.102
			c-2.626,0.046-3.096-0.783-3.02-3.151c0.174-5.262,0.055-10.534,0.055-15.802c0-5.396,0.091-10.796-0.047-16.188
			c-0.053-2.032,0.278-2.817,2.597-2.782c10.147,0.146,20.3,0.019,30.45,0.077c6.179,0.038,13.377,6.038,14.84,12.476
			C77.221,45.259,76.954,51.899,72.577,57.743z"/>
	</g>
</g>
</svg>
