<?xml version="1.0" encoding="utf-8"?>
<!-- Generator: Adobe Illustrator 16.0.3, SVG Export Plug-In . SVG Version: 6.00 Build 0)  -->
<!DOCTYPE svg PUBLIC "-//W3C//DTD SVG 1.1//EN" "http://www.w3.org/Graphics/SVG/1.1/DTD/svg11.dtd">
<svg version="1.1" id="Capa_1" xmlns="http://www.w3.org/2000/svg" xmlns:xlink="http://www.w3.org/1999/xlink" x="0px" y="0px"
	 width="666.872px" height="281.711px" viewBox="0 0 666.872 281.711" enable-background="new 0 0 666.872 281.711"
	 xml:space="preserve">
<g>
	<path fill="#221E20" d="M56.759,117.493c8.104-1.961,16.137-1.499,24.093,1.16c6.505,2.176,12.564,5.192,18.388,8.762
		c8.096,4.962,16.772,7.305,26.23,5.204c16.133-3.584,27.1-16.789,27.744-33.44c0.213-5.485-0.04-10.988-0.042-16.482
		c-0.008-25.329-0.07-50.659,0.077-75.987c0.02-3.347-0.956-4.363-4.192-4.18c-4.152,0.236-8.329,0.057-12.495,0.058
		c-6.339,0-6.346,0.001-6.397,6.28c-0.003,0.438-0.065,0.664-0.931,0.688c-3.138-3.996-7.247-7.136-12.579-8.481
		C102.97-2.379,88.636,2.626,80.496,14.238c-9.79,13.964-10.616,29.433-6.228,45.323c3.22,11.66,10.178,20.563,21.913,24.761
		c10.985,3.929,25.303,3.075,32.605-7.493c0.306-0.442,0.865-0.334,1.376-0.022c0,5.959,0.115,11.96-0.029,17.954
		c-0.178,7.334-4.805,12.504-11.73,13.147c-4.786,0.445-9.75-0.359-13.258-3.397c-12.536-10.858-27.236-13.97-43.197-13.405
		c-23.109,0.817-40.895,10.894-52.341,31.055C-0.95,140.752-2.001,160.969,2.57,181.271c11.364,50.469,61.651,56.742,92.53,40.535
		c2.244-1.178,3.395-2.57,3.317-5.393c-0.23-8.49-0.083-16.988-0.083-26.551c-10.098,10.627-21.621,14.898-35.179,14.467
		c-14.164-0.453-24.678-6.66-30.677-19.408c-7.084-15.051-7.318-30.691-1.027-46.021C36.073,127.637,44.795,120.389,56.759,117.493z
		 M123.962,60.592c-6.294,7.061-17.083,6.819-23.109-0.517c-3.744-4.556-5.507-9.868-5.515-14.276
		c-0.099-8.149,1.332-13.508,4.758-18.241c6.277-8.672,17.366-9.113,24.303-1.002C132.137,35.606,131.932,51.654,123.962,60.592z"/>
	<path fill="#221E20" d="M554.079,227c5.99-0.193,11.99-0.049,17.988-0.063c4.758-0.01,4.783-0.021,4.783-4.934
		c0.01-26.818-0.006-53.639,0.031-80.457c0.002-1.742-0.49-3.579,0.551-5.437c1.635,0.832,2.229,2.414,3.115,3.711
		c19.037,27.872,38.098,55.727,57.033,83.668c1.811,2.672,3.748,3.688,6.945,3.527c5.484-0.275,10.99-0.051,16.488-0.082
		c6.125-0.035,5.301,0.691,5.305-5.293c0.029-39.145,0.016-78.291,0.016-117.435c0-4.164-0.107-8.333,0.043-12.491
		c0.078-2.194-0.662-2.863-2.832-2.817c-5.994,0.126-11.992,0.003-17.988,0.054c-6.182,0.051-5.367-0.801-5.375,5.191
		c-0.031,27.318-0.004,54.637-0.045,81.956c-0.002,1.168,0.582,2.559-0.811,3.76c-1.133-1.578-2.213-3.023-3.234-4.512
		c-18.523-27.014-37.164-53.953-55.432-81.14c-2.803-4.17-5.656-5.729-10.453-5.353c-4.967,0.389-9.988,0.058-14.986,0.095
		c-5.1,0.038-4.723-0.593-4.723,4.93c0.002,35.813,0,71.626,0,107.441c0,7.328,0.111,14.66-0.055,21.986
		C550.38,226.104,551.206,227.092,554.079,227z"/>
	<path fill="#221E20" d="M468.257,226.738c26.023,4.148,50.639-7.881,64.289-30.969c9.189-15.541,11.096-32.391,8.857-50.059
		c-3.717-29.321-29.139-57.682-63.535-56.769c-18.92-0.015-34.438,6.568-46.314,19.517c-18.84,20.539-22.846,44.907-15.844,70.698
		C422.882,205.574,440.563,222.326,468.257,226.738z M443.927,136.508c6.27-14.676,19.398-22.469,35.359-21.878
		c15.203,0.562,27.617,9.83,33.039,24.639c2.256,6.162,3.209,12.533,3.174,16.161c-0.092,17.049-4.26,29.523-15.559,38.668
		c-17.123,13.859-44.076,8.252-54.492-11.424C437.497,167.652,437.312,151.994,443.927,136.508z"/>
	<path fill="#221E20" d="M300.308,163.215c9.805-2.031,16.839-7.686,21.154-16.587c4.445-9.166,4.914-18.889,3.113-28.767
		c-2.219-12.16-9.398-20.232-20.728-24.84c-5.762-2.344-11.766-3.753-17.941-3.858c-13.658-0.232-27.323-0.081-40.982-0.283
		c-3.037-0.045-3.537,1.181-3.472,3.805c0.151,6.161,0.048,12.33,0.048,18.495c0,36.994,0.04,73.987-0.066,110.981
		c-0.01,3.338,0.706,4.713,4.333,4.545c6.152-0.285,12.335-0.248,18.49-0.008c3.242,0.127,4.195-0.791,4.161-4.129
		c-0.179-17.328-0.083-34.66-0.083-51.99c0-1.559,0-3.115,0-4.674c1.539,1.299,2.344,2.691,3.074,4.121
		c8.913,17.443,17.883,34.859,26.657,52.373c1.511,3.016,3.074,4.5,6.734,4.336c7.816-0.348,15.66-0.07,23.49-0.145
		c1.195-0.012,2.658,0.707,3.703-0.854c-11.584-20.447-23.181-40.92-34.706-61.264C298.292,163.213,299.387,163.406,300.308,163.215
		z M287.193,145.935c-5.378,1.926-11.027,2.104-16.697,2.035c-2.798-0.034-2.136-1.965-2.142-3.47
		c-0.038-9.965,0.132-19.933-0.105-29.892c-0.078-3.26,1.064-4.094,3.96-3.688c0.977,0.137,1.987,0.021,2.982,0.021
		c4.188,0.003,8.286,0.514,12.202,2.055c7.209,2.836,10.201,7.912,10.105,17.02C297.414,138.087,294.044,143.483,287.193,145.935z"
		/>
	<path fill="#221E20" d="M226.302,189.809c-10.8-32.221-21.648-64.426-32.342-96.682c-1.053-3.175-2.377-4.441-5.913-4.289
		c-7.812,0.335-15.65,0.234-23.471,0.038c-2.909-0.073-4.32,0.746-5.283,3.633c-14.49,43.429-29.111,86.812-43.647,130.226
		c-0.373,1.113-1.39,2.344-0.172,3.893c8.351,0,16.84-0.15,25.319,0.082c3.023,0.082,3.943-1.203,4.656-3.783
		c2.124-7.674,4.639-15.242,6.688-22.936c0.76-2.85,1.755-4.027,4.958-3.973c12.984,0.217,25.975,0.17,38.96,0.025
		c2.781-0.031,4.052,0.668,4.79,3.521c2.079,8.027,4.529,15.959,6.892,23.91c0.442,1.486,0.53,3.223,2.991,3.189
		c9.096-0.119,18.194-0.047,27.02-0.047c0.791-1.348,0.169-2.059-0.082-2.811C233.883,212.473,230.099,201.139,226.302,189.809z
		 M159.675,173.662c5.492-18.818,10.932-37.459,16.372-56.101c0.287,0.049,0.575,0.098,0.862,0.146
		c5.445,18.535,10.891,37.069,16.439,55.956C182.136,173.662,171.261,173.662,159.675,173.662z"/>
	<path fill="#221E20" d="M200.921,44.086c0.099,2.387,1.182,2.948,3.461,2.91c8.494-0.139,16.992-0.055,25.488-0.055
		c6.459,0,12.918,0,19.431,0c-0.979,6.702-4.955,12.132-10.27,14.057c-5.521,2-10.355,0.476-14.941-2.926
		c-1.929-1.432-2.237-5.097-5.143-4.636c-2.345,0.372-4.481,2.085-6.698,3.226c-1.476,0.76-2.921,1.58-4.398,2.338
		c-4.474,2.295-4.477,2.289-1.68,6.336c10.938,15.824,38.111,18.358,52.365,4.971c5.117-4.807,8.287-10.714,10.386-17.814
		c0.598,1.131,0.995,1.68,1.196,2.293c4.819,14.711,14.956,22.93,30.36,23.94c12.791,0.84,24.071-2.661,31.834-13.781
		c2.588-3.705,2.531-3.787-1.266-5.737c-2.949-1.517-6.053-2.766-8.891-4.462c-2.654-1.586-4.088-1.639-6.289,1.222
		c-6.519,8.471-18.015,7.78-24.089-1.068c-1.5-2.186-2.664-4.567-3.267-7.957c1.86,0,3.345,0,4.829,0
		c13.328,0,26.658-0.089,39.984,0.068c3.031,0.036,4.195-0.798,4.061-3.896c-0.174-3.988-0.189-7.953-0.908-11.921
		c-2.865-15.799-14.344-27.15-29.482-28.947c-15.452-1.833-29.329,6.568-35.776,21.532c-0.705,1.636-0.764,3.62-2.429,4.999
		c-0.977-3.012-2.069-5.887-3.541-8.602c-10.564-19.498-36.359-24.354-52.366-9.679C203.055,19.509,200.393,31.268,200.921,44.086z
		 M302.038,19.104c7.44-0.268,13,5.208,14.409,14.695c-9.38,0-18.48,0-27.583,0C289.613,25.436,295.076,19.354,302.038,19.104z
		 M235.708,19.032c6.409-0.246,12.427,6.364,13.673,12.933c0.402,2.122-1.037,1.983-2.392,1.982
		c-8.43-0.004-16.858-0.002-25.329-0.002C223.067,24.6,228.396,19.313,235.708,19.032z"/>
	<path fill="#221E20" d="M396.306,157.068c-2.801-2.076-5.611-4.17-8.588-5.973c-5.25-3.183-10.727-5.999-15.934-9.248
		c-4.816-3.004-9.32-6.512-11.961-11.735c-3.563-7.05-0.668-14.301,6.766-16.986c5.074-1.833,10.086-1.358,15.033,0.791
		c4.742,2.06,8.221,5.501,11.133,9.775c3.17-3.463,6.201-6.775,9.232-10.086c7.488-8.177,7.395-9.221-1.457-16.122
		c-0.656-0.512-1.334-0.995-2.012-1.478c-9.664-6.887-20.674-7.984-31.949-6.796c-15.129,1.595-27.27,8.297-32.238,23.476
		c-4.947,15.109-2.875,29.241,9.229,40.806c4.969,4.748,10.701,8.406,16.633,11.791c5.338,3.047,10.699,6.07,15.615,9.777
		c2.119,1.596,4.24,3.275,6.002,5.238c4.316,4.814,4.82,10.457,2.613,16.318c-2.09,5.549-6.832,7.439-12.244,7.9
		c-8.99,0.766-16.664-2.109-22.947-8.668c-1.818-1.9-2.715-4.418-4.445-6.602c-5.002,5.686-9.775,11.232-14.705,16.635
		c-1.256,1.377-1.258,2.365-0.342,3.846c2.77,4.465,6.215,8.301,10.807,10.84c17.324,9.578,35.225,9.992,53.205,2.289
		c8.156-3.494,13.752-10.143,16.295-18.605C415.448,186.275,412.995,169.438,396.306,157.068z"/>
	<path fill="#221E20" d="M341.979,78.066c2.477,2.608,7.547,0.768,11.477,0.829c9.398,0.146,9.322,0.046,9.42-9.264
		c0.121-11.646-0.529-23.306,0.379-34.936c0.4-5.102,2.137-9.747,6.109-13.257c6.281-5.549,15.178-2.705,16.973,5.443
		c0.572,2.596,0.873,5.229,0.859,7.92c-0.061,13.317,0.057,26.637-0.088,39.954c-0.033,3.084,0.533,4.52,4.037,4.264
		c4.473-0.325,9-0.307,13.475-0.003c3.277,0.223,3.801-1.077,3.775-3.984c-0.131-15.314-0.035-30.631-0.076-45.947
		c-0.014-5.201-0.916-10.289-2.973-15.074c-2.801-6.517-7.537-10.877-14.711-12.104c-10.258-1.755-19.434,0.249-27.289,8.587
		c-0.242-1.012-0.51-1.506-0.441-1.947c0.57-3.684-0.762-5.039-4.629-4.693c-4.295,0.383-8.666,0.326-12.973,0.012
		c-3.4-0.249-4.061,1.021-4.037,4.166c0.135,19.644,0.043,39.288,0.09,58.933C341.366,70.765,339.765,75.734,341.979,78.066z"/>
	<path fill="#221E20" d="M158.806,78.981c4.322-0.14,8.652-0.015,12.979-0.045c5.867-0.041,5.354,0.707,5.386-5.307
		c0.06-11.313-0.291-22.647,0.3-33.933c0.625-11.952,7.913-20.692,22.078-16.548c2.025,0.593,2.554,0.113,2.847-1.85
		c0.833-5.582,1.764-11.154,2.868-16.688c0.559-2.798-0.48-4.002-3.122-4.272c-9.831-1.004-18.423,1.168-22.74,11.089
		c-0.441,1.013-0.959,1.992-1.44,2.987c-0.264-0.065-0.528-0.131-0.792-0.196c0-2.821-0.131-5.65,0.041-8.462
		c0.145-2.376-0.664-3.271-3.095-3.209c-5.155,0.133-10.32,0.169-15.473-0.015c-2.627-0.094-3.373,0.754-3.362,3.373
		c0.094,23.297,0.103,46.594-0.007,69.891C155.26,78.635,156.421,79.058,158.806,78.981z"/>
	<path fill="#242122" d="M531.229,234.637c-0.234-0.037-0.471-0.074-0.705-0.113c-5.723,13.096-11.447,26.189-17.432,39.883
		c-6.043-13.77-11.711-26.684-17.379-39.598c-2.01,8.994-3.168,17.691-4.299,26.393c-0.688,5.275-1.391,10.551-1.951,15.842
		c-0.115,1.086-1.105,2.799,1.049,3.172c2.061,0.359,1.93-1.23,2.09-2.543c0.223-1.814,0.51-3.621,0.732-5.438
		c1.055-8.615,2.098-17.232,3.145-25.85c0.279-0.041,0.559-0.084,0.838-0.125c5.141,11.543,10.279,23.084,15.787,35.451
		c5.449-12.273,10.574-23.818,15.938-35.9c1.063,2.176,1.111,3.826,1.297,5.463c1.018,8.922,2.084,17.84,3.092,26.764
		c0.146,1.295,0.395,2.244,2,2.221c1.887-0.027,1.557-1.221,1.404-2.387C534.966,263.461,533.099,249.049,531.229,234.637z"/>
	<path fill="#292628" d="M632.009,235.023c-2.891-0.037-1.615,2.43-1.631,3.752c-0.111,9.996-0.035,19.992-0.094,29.988
		c-0.008,1.164,0.613,2.578-0.781,3.641c-11.684-12.725-23.287-25.361-34.889-37.998c-0.832,14.797-0.832,29.08-0.83,43.365
		c0,0.332,0.002,0.668,0.039,0.998c0.107,0.955,0.604,1.523,1.615,1.455c1.012-0.066,1.4-0.725,1.418-1.656
		c0.021-1.166,0.031-2.332,0.031-3.498c0.004-9.496-0.027-18.994,0.045-28.49c0.008-1.139-0.76-2.672,1.139-3.529
		c11.512,12.58,23.029,25.166,34.547,37.754c0.301-0.115,0.602-0.23,0.904-0.346c0-13.99,0.025-27.98-0.047-41.969
		C633.47,237.246,634.45,235.057,632.009,235.023z"/>
	<path fill="#252123" d="M465.938,234.102c-13.379-0.076-23.414,9.734-23.609,23.076c-0.193,13.326,10.201,23.959,23.402,23.936
		c12.973-0.023,23.313-10.379,23.441-23.477C489.3,244.516,479.091,234.174,465.938,234.102z M465.741,278.098
		c-11.203,0.027-20.162-8.977-20.23-20.332c-0.072-11.625,8.883-20.693,20.391-20.65c11.203,0.041,19.912,9.045,19.889,20.563
		C485.767,269.133,476.991,278.072,465.741,278.098z"/>
	<path fill="#272325" d="M573.931,233.545c-0.807,1.787-1.248,2.674-1.613,3.592c-5.414,13.541-10.824,27.084-16.209,40.637
		c-0.313,0.783-1.447,1.813,0.102,2.406c0.934,0.359,2.082,0.182,2.598-0.891c0.646-1.338,1.137-2.754,1.672-4.145
		c4.041-10.494,4.039-10.494,15.17-10.494c7.365,0.002,7.369,0,10.113,6.869c0.984,2.463,1.934,4.939,2.916,7.402
		c0.539,1.352,1.758,1.709,2.869,1.238c1.449-0.615,0.299-1.662-0.018-2.457C585.782,263.234,580.007,248.777,573.931,233.545z
		 M566.798,261.189c-0.152-4.451,2.75-7.928,3.865-11.986c0.65-2.367,1.836-4.59,3.203-7.895c2.785,7.08,5.24,13.32,7.736,19.664
		C576.308,261.971,571.554,261.719,566.798,261.189z"/>
	<path fill="#262224" d="M414.534,270.105c-5.545-7.6-5.051-19.42,1.102-26.398c6.902-7.828,17.143-8.553,29.252-1.951
		c1.084-3.494-1.377-4.365-3.426-5.377c-9.736-4.803-22.482-2.039-28.955,6.217c-6.939,8.85-6.666,22.613,0.611,30.918
		c6.947,7.926,20.145,9.963,29.781,4.693c1.82-0.996,3.025-1.957,1.762-4.141C430.292,280.014,420.849,278.764,414.534,270.105z"/>
	<path fill="#242022" d="M561.333,247.01c0.049-6.232-2.891-10.125-8.777-11.578c-2.939-0.725-5.953-0.309-8.922-0.533
		c-2.547-0.193-3.451,0.594-3.365,3.277c0.197,6.303,0.063,12.617,0.064,18.926c0,6.973-0.01,13.945,0.012,20.918
		c0.002,0.926-0.223,2.055,1.248,2.209c1.783,0.189,1.742-1.025,1.742-2.221c0.002-4.482,0.002-8.965,0.004-13.447
		c0.002-5.246,0.004-5.215,5.023-5.643c1.477-0.125,2.957-0.389,4.395-0.754C558.534,256.697,561.284,253.082,561.333,247.01z
		 M558.157,247.855c-0.51,5.768-6.088,9.23-13.025,8.299c-1.623-0.219-1.822-0.955-1.803-2.242c0.035-2.318,0.01-4.637,0.008-6.955
		c0-1.822,0.195-3.67-0.041-5.461c-0.465-3.516,0.996-4.035,4.205-3.686C555.212,238.65,558.7,241.719,558.157,247.855z"/>
	<path fill="#292628" d="M666.872,235.502c-1.881-0.879-3.156-0.826-4.053,0.891c-0.611,1.174-1.359,2.277-2.037,3.416
		c-3.152,5.303-6.303,10.605-9.676,16.283c-4.057-6.672-7.672-12.621-11.293-18.568c-0.947-1.557-1.771-3.352-4.779-2.053
		c4.197,6.889,8.166,13.58,12.33,20.146c1.482,2.34,2.254,4.658,2.158,7.447c-0.164,4.816-0.063,9.643-0.029,14.465
		c0.006,1.084-0.354,2.551,1.379,2.66c2.25,0.141,1.604-1.67,1.623-2.832c0.068-4.156,0.244-8.328-0.035-12.467
		c-0.26-3.855,0.891-7.051,2.91-10.248C659.333,248.371,663.03,241.932,666.872,235.502z"/>
</g>
</svg>
